<svg preserveAspectRatio="none" width="100%" height="100%" overflow="visible" style="display: block;" viewBox="0 0 20.4931 20.4931" fill="none" xmlns="http://www.w3.org/2000/svg">
<g id="Arrow - Right Circle">
<path id="Fill 1" opacity="0.4" d="M20.4931 10.2466C20.4931 15.8976 15.8965 20.4931 10.2465 20.4931C4.5966 20.4931 0 15.8976 0 10.2466C0 4.59664 4.5966 3.57628e-05 10.2465 3.57628e-05C15.8965 3.57628e-05 20.4931 4.59664 20.4931 10.2466" fill="var(--fill-0, black)"/>
<path id="Fill 4" d="M14.5713 8.76862C14.5713 8.96433 14.4965 9.16107 14.3469 9.31067L10.7914 12.8836C10.6469 13.0281 10.4512 13.1091 10.2462 13.1091C10.0423 13.1091 9.84662 13.0281 9.70215 12.8836L6.14455 9.31067C5.84535 9.01044 5.84535 8.52475 6.1466 8.22453C6.44784 7.92533 6.93456 7.92636 7.23375 8.22658L10.2462 11.2524L13.2587 8.22658C13.5579 7.92636 14.0436 7.92533 14.3449 8.22453C14.4965 8.37413 14.5713 8.57189 14.5713 8.76862" fill="var(--fill-0, black)"/>
</g>
</svg>
