<svg preserveAspectRatio="none" width="100%" height="100%" overflow="visible" style="display: block;" viewBox="0 0 16.412 15.4502" fill="none" xmlns="http://www.w3.org/2000/svg">
<g id="Time Circle">
<path id="Fill 1" opacity="0.4" d="M16.412 7.72509C16.412 11.9924 12.7381 15.4502 8.20598 15.4502C3.67382 15.4502 0 11.9924 0 7.72509C0 3.45929 3.67382 2.44752e-06 8.20598 2.44752e-06C12.7381 2.44752e-06 16.412 3.45929 16.412 7.72509" fill="var(--fill-0, black)"/>
<path id="Fill 4" d="M11.1386 10.6718C11.0311 10.6718 10.9227 10.6456 10.8234 10.5907L7.60178 8.78149C7.41632 8.67643 7.30226 8.48716 7.30226 8.28322V4.38437C7.30226 4.06455 7.57798 3.80499 7.91771 3.80499C8.25743 3.80499 8.53315 4.06455 8.53315 4.38437V7.95413L11.4545 9.59417C11.7458 9.75871 11.8418 10.1141 11.6678 10.3891C11.5521 10.5706 11.3478 10.6718 11.1386 10.6718" fill="var(--fill-0, black)"/>
</g>
</svg>
