<svg preserveAspectRatio="none" width="100%" height="100%" overflow="visible" style="display: block;" viewBox="0 0 15.3056 15.3056" fill="none" xmlns="http://www.w3.org/2000/svg">
<g id="Arrow - Right Circle">
<path id="Fill 1" opacity="0.4" d="M15.3056 7.65279C15.3056 11.8733 11.8726 15.3056 7.65282 15.3056C3.43308 15.3056 4.43459e-05 11.8733 4.43459e-05 7.65279C4.43459e-05 3.43304 3.43308 8.31485e-06 7.65282 8.31485e-06C11.8726 8.31485e-06 15.3056 3.43304 15.3056 7.65279" fill="var(--fill-0, #A6A6A6)"/>
<path id="Fill 4" d="M10.8828 6.54895C10.8828 6.69512 10.827 6.84205 10.7152 6.95378L8.05972 9.6223C7.95182 9.73021 7.80565 9.79067 7.65259 9.79067C7.5003 9.79067 7.35413 9.73021 7.24623 9.6223L4.58919 6.95378C4.36572 6.72955 4.36572 6.36681 4.59072 6.14259C4.81571 5.91913 5.17921 5.91989 5.40268 6.14412L7.65259 8.40398L9.90251 6.14412C10.126 5.91989 10.4887 5.91913 10.7137 6.14259C10.827 6.25432 10.8828 6.40202 10.8828 6.54895" fill="var(--fill-0, #A6A6A6)"/>
</g>
</svg>
