<svg preserveAspectRatio="none" width="100%" height="100%" overflow="visible" style="display: block;" viewBox="0 0 21.3613 21.3613" fill="none" xmlns="http://www.w3.org/2000/svg">
<g id="Group 2085667922">
<circle id="Ellipse 6295" cx="10.6807" cy="10.6807" r="10.6807" fill="var(--fill-0, black)"/>
<path id="Vector" fill-rule="evenodd" clip-rule="evenodd" d="M10.9027 6.57654C11.2766 6.65728 11.5413 6.96788 11.5413 7.32579V9.4119H12.8506C13.1352 9.4119 13.3997 9.54871 13.5503 9.77385C13.701 9.99899 13.7165 10.2806 13.5914 10.519L11.4574 14.5855C11.2887 14.907 10.9045 15.0774 10.5305 14.9967C10.1566 14.9159 9.89185 14.6053 9.89185 14.2474V12.1613H8.58256C8.29797 12.1613 8.0335 12.0245 7.88285 11.7994C7.7322 11.5742 7.71667 11.2926 7.84176 11.0542L9.9758 6.98774C10.1445 6.66626 10.5287 6.4958 10.9027 6.57654Z" fill="var(--fill-0, white)"/>
</g>
</svg>
