<svg preserveAspectRatio="none" width="100%" height="100%" overflow="visible" style="display: block;" viewBox="0 0 11.7329 10.7551" fill="none" xmlns="http://www.w3.org/2000/svg">
<g id="Vector">
<path d="M6.43919 0.347342L7.74534 2.88005C7.84157 3.06354 8.02523 3.19097 8.23706 3.21929L11.1709 3.63159C11.3422 3.65481 11.4977 3.74203 11.6028 3.87512C11.7066 4.00651 11.7512 4.17302 11.726 4.33669C11.7055 4.47261 11.6392 4.59834 11.5376 4.69462L9.41177 6.68307C9.25628 6.82182 9.18586 7.0274 9.22342 7.22846L9.74682 10.0239C9.80256 10.3615 9.57079 10.6798 9.22342 10.7438C9.08025 10.7659 8.93355 10.7426 8.80446 10.6792L6.18747 9.36359C5.99324 9.26901 5.76382 9.26901 5.5696 9.36359L2.9526 10.6792C2.63105 10.844 2.23263 10.7319 2.05367 10.4261C1.98736 10.3043 1.96389 10.1655 1.9856 10.0302L2.509 7.23412C2.54655 7.03363 2.47555 6.82692 2.32065 6.68816L0.194776 4.70085C-0.0581223 4.46525 -0.0657503 4.0773 0.17776 3.83321C0.18304 3.82811 0.188908 3.82245 0.194776 3.81678C0.2957 3.71767 0.428311 3.65481 0.571483 3.63838L3.50534 3.22552C3.71657 3.19663 3.90023 3.07034 3.99705 2.88571L5.25626 0.347342C5.36833 0.129865 5.60069 -0.0054924 5.85301 0.000171066H5.93163C6.1505 0.0256567 6.3412 0.156483 6.43919 0.347342Z" fill="var(--fill-0, #FFFEFE)"/>
<path d="M5.86176 9.29306C5.74813 9.29646 5.63742 9.32592 5.53785 9.3786L2.93365 10.6912C2.615 10.838 2.23369 10.7241 2.05504 10.4301C1.98885 10.31 1.96483 10.1723 1.98709 10.0375L2.50723 7.24734C2.54237 7.04453 2.47208 6.83831 2.31921 6.69555L0.192383 4.70875C-0.0600713 4.47024 -0.0647573 4.07877 0.182425 3.8346C0.18594 3.8312 0.188868 3.82837 0.192383 3.82554C0.29313 3.72923 0.423164 3.66578 0.563156 3.64595L3.49947 3.22899C3.7121 3.20293 3.8966 3.0749 3.99032 2.88908L5.26665 0.318758C5.3879 0.111411 5.62044 -0.0120916 5.86645 0.000938453C5.86176 0.169196 5.86176 9.17862 5.86176 9.29306Z" fill="var(--fill-0, #FFFEFE)"/>
</g>
</svg>
