<svg preserveAspectRatio="none" width="100%" height="100%" overflow="visible" style="display: block;" viewBox="0 0 17.3119 17.3118" fill="none" xmlns="http://www.w3.org/2000/svg">
<g id="Tick Square">
<path id="Fill 1" opacity="0.4" d="M12.4126 0H4.9079C1.97355 0 0 2.06011 0 5.1243V12.1962C0 15.2517 1.97355 17.3118 4.9079 17.3118H12.4126C15.3469 17.3118 17.3118 15.2517 17.3118 12.1962V5.1243C17.3118 2.06011 15.3469 0 12.4126 0" fill="var(--fill-0, #FAD026)"/>
<path id="Fill 4" d="M7.62854 11.4674C7.43465 11.4674 7.24076 11.3939 7.09274 11.2458L5.03869 9.1918C4.74266 8.89577 4.74266 8.41623 5.03869 8.12106C5.33473 7.82503 5.8134 7.82417 6.10943 8.1202L7.62854 9.63931L11.2017 6.06615C11.4977 5.77012 11.9764 5.77012 12.2724 6.06615C12.5685 6.36218 12.5685 6.84172 12.2724 7.13775L8.16434 11.2458C8.01633 11.3939 7.82244 11.4674 7.62854 11.4674" fill="var(--fill-0, black)"/>
</g>
</svg>
