<svg preserveAspectRatio="none" width="100%" height="100%" overflow="visible" style="display: block;" viewBox="0 0 20.7726 20.7726" fill="none" xmlns="http://www.w3.org/2000/svg">
<g id="Arrow - Right Circle">
<path id="Fill 1" d="M20.2726 10.3863C20.2726 15.8386 15.8376 20.2726 10.3863 20.2726C4.93498 20.2726 0.5 15.8386 0.5 10.3863C0.5 4.93498 4.93498 0.5 10.3863 0.5C15.8376 0.5 20.2726 4.93498 20.2726 10.3863" stroke="var(--stroke-0, black)"/>
<path id="Fill 4" d="M14.559 8.96028C14.559 9.14911 14.4868 9.33892 14.3425 9.48326L10.9119 12.9306C10.7725 13.07 10.5837 13.1481 10.386 13.1481C10.1892 13.1481 10.0004 13.07 9.86102 12.9306L6.4285 9.48326C6.13982 9.1936 6.13982 8.72499 6.43048 8.43532C6.72113 8.14664 7.19073 8.14763 7.47941 8.43729L10.386 11.3567L13.2925 8.43729C13.5812 8.14763 14.0498 8.14664 14.3405 8.43532C14.4868 8.57966 14.559 8.77046 14.559 8.96028" fill="var(--fill-0, black)"/>
</g>
</svg>
