<svg preserveAspectRatio="none" width="100%" height="100%" overflow="visible" style="display: block;" viewBox="0 0 20 20" fill="none" xmlns="http://www.w3.org/2000/svg">
<path id="Fill 302" fill-rule="evenodd" clip-rule="evenodd" d="M11.0072 13.3928L10.7867 13.7836H9.92513L9.66564 13.439C9.65026 13.4154 8.12513 11.1364 6.15385 9.88923L5.50256 9.47897L6.32513 8.17846L6.97436 8.58872C8.39487 9.48615 9.57436 10.7969 10.2697 11.6718C11.3621 10.0256 13.92 6.59692 17.8431 3.81641C16.0103 1.49641 13.1785 0 10 0C4.48615 0 0 4.48615 0 10C0 15.5138 4.48615 20 10 20C15.5138 20 20 15.5138 20 10C20 8.21846 19.5262 6.54872 18.7067 5.09846C13.7497 8.63282 11.0369 13.3405 11.0072 13.3928Z" fill="var(--fill-0, black)"/>
</svg>
