<svg preserveAspectRatio="none" width="100%" height="100%" overflow="visible" style="display: block;" viewBox="0 0 15.3056 15.3056" fill="none" xmlns="http://www.w3.org/2000/svg">
<g id="Arrow - Right Circle">
<path id="Fill 1" d="M15.3056 7.65278C15.3056 11.8733 11.8726 15.3056 7.65282 15.3056C3.43308 15.3056 4.43459e-05 11.8733 4.43459e-05 7.65278C4.43459e-05 3.43304 3.43308 0 7.65282 0C11.8726 0 15.3056 3.43304 15.3056 7.65278Z" fill="var(--fill-0, black)"/>
<path id="Fill 4" d="M10.8828 6.54894C10.8828 6.69511 10.827 6.84204 10.7152 6.95377L8.05972 9.6223C7.95182 9.7302 7.80565 9.79066 7.65259 9.79066C7.5003 9.79066 7.35413 9.7302 7.24623 9.6223L4.58919 6.95377C4.36572 6.72955 4.36572 6.3668 4.59072 6.14258C4.81571 5.91912 5.17921 5.91988 5.40268 6.14411L7.65259 8.40397L9.90251 6.14411C10.126 5.91988 10.4887 5.91912 10.7137 6.14258C10.827 6.25431 10.8828 6.40201 10.8828 6.54894" fill="var(--fill-0, #FAD026)"/>
</g>
</svg>
